<svg width="144" height="118" viewBox="0 0 144 118" fill="none" xmlns="http://www.w3.org/2000/svg">
<path d="M133.494 91.4018C138.591 84.9436 143.944 74.8739 143.982 66.82C128.359 66.973 112.735 67.0103 97.1122 66.9315L85.5354 66.9192C82.0714 66.9063 78.4166 66.6879 75.0017 67.3524C72.7199 67.7964 70.6601 68.9955 69.0515 70.664C63.5669 76.3526 55.1847 93.8431 49.4468 97.0127C46.9472 98.3935 43.7445 98.4913 40.9583 98.5569C37.7887 98.6316 34.6103 98.5961 31.4397 98.5782C34.1483 93.3528 36.5444 90.2013 39.8389 85.3386L48.3318 72.6197C54.3946 63.6795 57.5067 55.8325 68.5342 52.3289C68.9619 52.1938 69.3928 52.068 69.8262 51.9518C71.9976 51.3631 89.8723 50.1856 144 50.1856C142.763 37.9666 133.055 24.5334 123.615 16.8822C112.264 7.73637 98.3929 2.31491 84.0032 0.356431C80.1116 -0.02489 76.1477 0.00753451 72.2268 0.0396069L71.931 0.0420202C69.4927 0.0617318 66.6695 -0.0934234 64.2476 0.0925683C44.4512 1.6129 24.2206 10.6244 11.6695 26.2485C3.90027 35.9199 -0.43227 46.9941 0.0341583 59.3413C0.135811 61.6238 -0.0459885 63.8996 0.26366 66.2154C4.10945 95.0047 32.541 114.489 59.8449 117.704C64.0488 118.074 68.2815 117.965 72.5065 117.971C75.1023 117.975 77.8139 118.046 80.4223 117.95C100.444 117.218 121.074 107.14 133.494 91.4018Z" fill="#E7242C"/>
</svg>
